<svg xmlns="http://www.w3.org/2000/svg" viewBox="0 0 48 48" fill="none">
  <defs>
    <linearGradient id="mjG" x1="0" y1="0" x2="0.4" y2="1">
      <stop offset="0" stop-color="#fde68a" />
      <stop offset="0.55" stop-color="#f59e0b" />
      <stop offset="1" stop-color="#c2410c" />
    </linearGradient>
  </defs>

  <!-- one continuous Mjölnir-pendant silhouette: flared head, tapered
       haft, forked foot -->
  <path
    d="M11 12.5C11 10.6 12.6 9 14.5 9h19C35.4 9 37 10.6 37 12.5v9c0 1.9-1.6 3.5-3.5 3.5H27v9.2l2.6 2.6a2 2 0 0 1 0 2.8l-2.9 2.9a3.8 3.8 0 0 1-5.4 0l-2.9-2.9a2 2 0 0 1 0-2.8l2.6-2.6V25h-6.6C12.6 25 11 23.4 11 21.5Z"
    fill="url(#mjG)"
    stroke="#0b0a09"
    stroke-width="1.5"
    stroke-linejoin="round"
  />

  <!-- forged detail: an etched band and three bosses across the head -->
  <path d="M14 17h20" stroke="#0b0a09" stroke-width="1.1" opacity="0.3" />
  <circle cx="17" cy="20.5" r="1.6" fill="#0b0a09" opacity="0.38" />
  <circle cx="24" cy="20.5" r="1.6" fill="#0b0a09" opacity="0.38" />
  <circle cx="31" cy="20.5" r="1.6" fill="#0b0a09" opacity="0.38" />
</svg>
